<?xml version="1.0" encoding="utf-8"?>
<!-- Generator: Adobe Illustrator 16.0.0, SVG Export Plug-In . SVG Version: 6.00 Build 0)  -->
<!DOCTYPE svg PUBLIC "-//W3C//DTD SVG 1.1//EN" "http://www.w3.org/Graphics/SVG/1.1/DTD/svg11.dtd">
<svg version="1.1" id="Layer_1" xmlns="http://www.w3.org/2000/svg" xmlns:xlink="http://www.w3.org/1999/xlink" x="0px" y="0px"
	 width="306px" height="297px" viewBox="0 0 306 297" enable-background="new 0 0 306 297" xml:space="preserve">
<g>
	<g>
		<path fill="#FFFFFF" d="M12.3,77.4c0-3.5,2.8-7.9,6.3-9.6L151,0.7c3.5-1.7,9.1-1.7,12.6,0l132.5,67.2c3.5,1.7,6.3,6.1,6.3,9.6
			v134.4c0,3.5-2.8,7.9-6.3,9.6l-132.5,67.2c-3.5,1.7-9.1,1.7-12.6,0L18.6,221.4c-3.5-1.7-6.3-6.1-6.3-9.6V77.4L12.3,77.4z"/>
		<g>
			<g>
				<g>
					<g>
						<g>
							<path fill="#2A3649" d="M81.5,48.1c0-4.4,4-7.9,8.9-7.9h134.1c5,0,8.9,3.5,8.9,7.9v193.3c0,4.4-4,7.9-8.9,7.9H90.4
								c-5,0-8.9-3.5-8.9-7.9V48.1z"/>
						</g>
					</g>
					<g>
						<g>
							<rect x="90.4" y="67.5" fill="#3CAB5E" width="134.1" height="147.6"/>
						</g>
					</g>
					<g>
						<g>
							<g>
								<path fill="#F7F8F9" d="M163,53h-11.1c-0.3,0-0.5-0.1-0.5-0.4c0-0.1,0.2-0.4,0.5-0.4H163c0.3,0,0.5,0.1,0.5,0.4
									C163.5,52.9,163.3,53,163,53z"/>
							</g>
						</g>
						<g>
							<g>
								<path fill="#F7F8F9" d="M166.6,55.2h-18.2c-0.2,0-0.5-0.1-0.5-0.4c0-0.3,0.2-0.4,0.5-0.4h18.2c0.2,0,0.5,0.1,0.5,0.4
									C167.1,55,166.9,55.2,166.6,55.2z"/>
							</g>
						</g>
						<g>
							<g>
								<path fill="#F7F8F9" d="M163,57.2h-11.1c-0.2,0-0.5-0.1-0.5-0.4c0-0.1,0.2-0.4,0.5-0.4H163c0.3,0,0.5,0.1,0.5,0.4
									C163.5,57.1,163.3,57.2,163,57.2z"/>
							</g>
						</g>
					</g>
				</g>
				<g>
					<path fill="#F7F8F9" d="M157.5,242.1c-5.3,0-9.6-3.8-9.6-8.6c0-4.8,4.3-8.4,9.6-8.4s9.6,3.8,9.6,8.4S162.8,242.1,157.5,242.1z
						 M157.5,225.8c-4.8,0-8.8,3.5-8.8,7.7c0,4.2,4,7.7,8.8,7.7c4.8,0,8.8-3.5,8.8-7.7C166.3,229.3,162.3,225.8,157.5,225.8z"/>
				</g>
			</g>
			<rect x="101.5" y="75.4" fill="#F7F8F9" width="111.8" height="27.8"/>
			<g>
				<rect x="140.8" y="112.3" opacity="0.4" fill="#434244" enable-background="new    " width="72.7" height="27.8"/>
				<rect x="101.5" y="112" opacity="0.4" fill="#434244" enable-background="new    " width="32" height="28.1"/>
				<rect x="140.8" y="146.9" opacity="0.4" fill="#434244" enable-background="new    " width="72.7" height="27.8"/>
				<rect x="101.5" y="146.7" opacity="0.4" fill="#434244" enable-background="new    " width="32" height="28.1"/>
				<rect x="140.8" y="181.4" opacity="0.4" fill="#434244" enable-background="new    " width="72.7" height="27.8"/>
				<rect x="101.5" y="181.3" opacity="0.4" fill="#434244" enable-background="new    " width="32" height="28.1"/>
			</g>
		</g>
		<path opacity="0.1" fill="#221F1F" enable-background="new    " d="M296.1,67.8L163.5,0.7c-1.7-0.9-3.8-1.3-6-1.3V290
			c2.2,0,4.3-0.4,6-1.3l132.5-67.2c3.5-1.7,6.3-6.1,6.3-9.6V77.4C302.4,73.9,299.6,69.6,296.1,67.8z"/>
	</g>
	<rect x="2" y="2.4" fill="none" width="291.5" height="277.8"/>
</g>
</svg>
